<?xml version="1.0" encoding="utf-8"?>
<!-- Generator: Adobe Illustrator 22.0.0, SVG Export Plug-In . SVG Version: 6.00 Build 0)  -->
<svg version="1.1" id="Layer_1" xmlns="http://www.w3.org/2000/svg" xmlns:xlink="http://www.w3.org/1999/xlink" x="0px" y="0px"
	 viewBox="0 0 496.2 496.2" style="enable-background:new 0 0 496.2 496.2;" xml:space="preserve">
<style type="text/css">
	.st0{fill:#464547;}
	.st1{fill:#B1B3B6;}
</style>
<path class="st0" d="M496.2,248.1C496.2,111.1,385.1,0,248.1,0C111.1,0,0,111.1,0,248.1c0,137,111.1,248.1,248.1,248.1
	C385.1,496.2,496.2,385.1,496.2,248.1z"/>
<path class="st1" d="M145.4,178.4c0-13,4.2-26.2,12.5-39.5c8.4-13.4,20.5-24.4,36.6-33.2c16-8.8,34.7-13.1,56.1-13.1
	c19.9,0,37.4,3.7,52.6,11c15.2,7.3,26.9,17.3,35.2,29.9c8.3,12.6,12.4,26.3,12.4,41.1c0,11.6-2.4,21.8-7.1,30.6
	c-4.7,8.8-10.3,16.3-16.8,22.7c-6.5,6.4-18.2,17.1-35,32.1c-4.7,4.2-8.4,8-11.2,11.2c-2.8,3.2-4.9,6.2-6.3,8.8
	c-1.4,2.7-2.4,5.3-3.2,8c-0.8,2.7-1.9,7.4-3.4,14.1c-2.6,14.2-10.8,21.4-24.4,21.4c-7.1,0-13.1-2.3-18-7c-4.9-4.7-7.3-11.6-7.3-20.7
	c0-11.5,1.8-21.5,5.3-29.9c3.6-8.4,8.3-15.8,14.2-22.2c5.9-6.4,13.8-13.9,23.8-22.7c8.8-7.7,15.1-13.5,19-17.4
	c3.9-3.9,7.2-8.2,9.9-13c2.7-4.8,4-10,4-15.6c0-11-4.1-20.2-12.2-27.7c-8.1-7.5-18.7-11.3-31.5-11.3c-15.1,0-26.2,3.8-33.3,11.4
	c-7.1,7.6-13.1,18.8-18.1,33.6c-4.7,15.5-13.5,23.2-26.5,23.2c-7.7,0-14.1-2.7-19.4-8.1C148,190.6,145.4,184.7,145.4,178.4z
	 M245.6,403.6c-8.4,0-15.6-2.7-21.9-8.1c-6.2-5.4-9.3-13-9.3-22.7c0-8.6,3-15.9,9-21.8c6-5.9,13.4-8.8,22.2-8.8
	c8.6,0,15.9,2.9,21.8,8.8c5.9,5.9,8.8,13.1,8.8,21.8c0,9.6-3.1,17.1-9.2,22.6C260.8,400.8,253.7,403.6,245.6,403.6z"/>
</svg>
