<?xml version="1.0" encoding="utf-8"?>
<!-- Generator: Adobe Illustrator 22.0.0, SVG Export Plug-In . SVG Version: 6.00 Build 0)  -->
<svg version="1.1" id="Layer_1" xmlns="http://www.w3.org/2000/svg" xmlns:xlink="http://www.w3.org/1999/xlink" x="0px" y="0px"
	 viewBox="0 0 496.2 496.2" style="enable-background:new 0 0 496.2 496.2;" xml:space="preserve">
<style type="text/css">
	.st0{fill:#464547;}
	.st1{fill:#B1B3B6;}
</style>
<path class="st0" d="M496.2,248.1C496.2,111.1,385.1,0,248.1,0C111.1,0,0,111.1,0,248.1c0,137,111.1,248.1,248.1,248.1
	C385.1,496.2,496.2,385.1,496.2,248.1z"/>
<path class="st1" d="M408.3,267.4v-38.6l-36.6-11.5c-3.1-12.4-8-24.1-14.5-34.8l17.8-34.1l-27.3-27.3l-34.2,17.8
	c-10.6-6.4-22.2-11.2-34.6-14.3l-11.6-36.8h-38.7l-11.6,36.8c-12.3,3.1-24,7.9-34.6,14.3l-34.2-17.8l-27.3,27.3l17.8,34.1
	c-6.4,10.7-11.4,22.4-14.5,34.8l-36.6,11.5v38.6l36.4,11.5c3.1,12.5,8,24.3,14.5,35.1l-17.6,33.8l27.3,27.3l33.7-17.6
	c10.8,6.5,22.7,11.5,35.3,14.6l11.4,36.2h38.7l11.4-36.2c12.6-3.1,24.4-8.1,35.3-14.6l33.7,17.6l27.3-27.3l-17.6-33.8
	c6.5-10.8,11.4-22.6,14.5-35.1L408.3,267.4z M248.1,329.3c-44.7,0-81-36.3-81-81c0-44.7,36.3-81,81-81c44.7,0,81,36.3,81,81
	C329.1,293.1,292.8,329.3,248.1,329.3z"/>
</svg>
