<?xml version="1.0" encoding="utf-8"?>
<!-- Generator: Adobe Illustrator 22.0.0, SVG Export Plug-In . SVG Version: 6.00 Build 0)  -->
<svg version="1.1" id="Capa_1" xmlns="http://www.w3.org/2000/svg" xmlns:xlink="http://www.w3.org/1999/xlink" x="0px" y="0px"
	 viewBox="0 0 512 512" style="enable-background:new 0 0 512 512;" xml:space="preserve">
<style type="text/css">
	.st0{fill:#868586;}
</style>
<path class="st0" d="M412,207.1h-1v-53.5C410.9,68.9,342,0,257.3,0c-80.7,0.1-147,62.6-153.2,141.7h67.6c5.9-42,42.1-74.3,85.6-74.3
	c47.7,0,86.4,38.8,86.4,86.4v53.5H191.3h-20.5h-67.3H100c-22.4,0-40.6,18.2-40.6,40.6v223.6c0,22.4,18.2,40.6,40.6,40.6h312
	c22.4,0,40.6-18.2,40.6-40.6V247.7C452.6,225.3,434.4,207.1,412,207.1z M280.1,369.5c-3.1,2.3-4,4.5-4,8.2
	c0.1,16.4,0.1,32.7,0.1,49.2c0.3,6.8-3.1,13.5-9.2,16.5c-14.3,7.3-28.7-2.9-28.7-16.5v-0.1c0-16.4,0-32.9,0.1-49.3
	c0-3.3-0.7-5.5-3.7-7.7c-14.9-11-19.8-29.7-12.3-46.1c7.2-16,24.9-25.4,41.5-22.1c18.5,3.8,31.4,18.6,31.6,37.1
	C295.5,351.5,290.4,362,280.1,369.5z"/>
</svg>
